<svg width="198" height="198" viewBox="0 0 198 198" fill="none" xmlns="http://www.w3.org/2000/svg">
<circle cx="99" cy="99" r="99" fill="#F6FDFF"/>
<g clip-path="url(#clip0)">
<rect width="67.731" height="68" transform="translate(65 65)" fill="#F6FDFF"/>
<path fill-rule="evenodd" clip-rule="evenodd" d="M104.014 98.9777L131.758 70.5564C132.365 69.9308 132.7 69.0912 132.691 68.2201C132.682 67.349 132.329 66.5166 131.71 65.9038C131.404 65.6008 131.041 65.3616 130.642 65.1996C130.243 65.0377 129.816 64.9565 129.386 64.9606C128.955 64.9647 128.53 65.0541 128.134 65.2236C127.738 65.3931 127.38 65.6391 127.08 65.9479L99.3836 94.3253L70.5409 65.9038C70.2348 65.601 69.872 65.3619 69.473 65.2002C69.0741 65.0384 68.6471 64.9573 68.2166 64.9614C67.7861 64.9655 67.3607 65.0548 66.9649 65.2241C66.5691 65.3935 66.2108 65.6394 65.9106 65.9479C65.3038 66.5729 64.968 67.4123 64.9762 68.2834C64.9845 69.1545 65.336 69.9869 65.9546 70.6003L94.7554 98.9777L65.9546 127.355C65.336 127.968 64.9845 128.801 64.9762 129.672C64.968 130.543 65.3038 131.383 65.9106 132.008C66.2105 132.317 66.5687 132.563 66.9645 132.733C67.3603 132.903 67.786 132.992 68.2166 132.996C68.6472 133 69.0743 132.919 69.4733 132.757C69.8723 132.595 70.2351 132.355 70.5409 132.052L99.3836 103.63L127.08 132.008C127.384 132.322 127.747 132.571 128.15 132.742C128.552 132.912 128.984 133 129.421 133C129.847 133.002 130.269 132.918 130.663 132.756C131.057 132.593 131.414 132.354 131.714 132.052C132.334 131.439 132.686 130.607 132.695 129.736C132.704 128.864 132.369 128.025 131.763 127.399L104.014 98.9777Z" fill="#1C1C1C"/>
</g>
<defs>
<clipPath id="clip0">
<rect width="67.731" height="68" fill="white" transform="translate(65 65)"/>
</clipPath>
</defs>
</svg>
