<svg width="1398" height="1121" viewBox="0 0 1398 1121" fill="none" xmlns="http://www.w3.org/2000/svg">
<path fill-rule="evenodd" clip-rule="evenodd" d="M977.366 631.885C987.1 548.475 1039.25 485.397 1108.28 461.234C1151.69 446.039 1291.85 449.147 1358.74 526.651C1452.03 634.776 1362.29 710.1 1264.11 698.013C1128.92 681.37 1247.03 800.403 1160.22 876.489C1091.39 936.8 1108.27 824.579 1025.75 791.871C965.029 767.81 969.796 696.714 977.366 631.885Z" fill="#F25CAF"/>
<path fill-rule="evenodd" clip-rule="evenodd" d="M1057.67 365.041C1118.21 326.959 1193.71 360.998 1231.62 421.816C1269.53 482.635 1331.75 609.401 1206.51 603.822C1108.99 599.479 907.891 459.269 1057.67 365.041Z" fill="#17BF82"/>
<path fill-rule="evenodd" clip-rule="evenodd" d="M1047.15 1110.72C1032.58 1122.15 1003.2 1126.16 991.766 1111.65C980.346 1097.13 991.212 1069.59 1005.79 1058.17C1020.36 1046.74 1041.43 1049.25 1052.86 1063.76C1064.28 1078.27 1061.73 1099.3 1047.15 1110.72Z" fill="#17BF82"/>
<path fill-rule="evenodd" clip-rule="evenodd" d="M735.919 788.403C752.748 777.95 773.736 787.294 784.273 803.989C794.811 820.684 812.107 855.482 777.293 853.951C750.184 852.759 694.284 814.27 735.919 788.403Z" fill="#9278DA"/>
<path fill-rule="evenodd" clip-rule="evenodd" d="M854.845 715.699C874.175 715.699 895.127 686.737 895.127 674.034C895.127 661.332 869.33 661 850 661C830.67 661 815 671.297 815 684C815 696.703 835.515 715.699 854.845 715.699Z" fill="#9278DA"/>
<path fill-rule="evenodd" clip-rule="evenodd" d="M420.845 611.699C440.175 611.699 461.127 582.737 461.127 570.034C461.127 557.332 435.33 557 416 557C396.67 557 381 567.297 381 580C381 592.703 401.515 611.699 420.845 611.699Z" fill="#17BF82"/>
<path fill-rule="evenodd" clip-rule="evenodd" d="M344.996 287.453C401.976 361.944 350.731 622.601 217.548 666.807C62.9471 718.116 -9.90689 374.28 1.08051 293.5C12.0665 212.719 33.2126 206.087 121.962 259.408C210.711 312.731 288.016 212.96 344.996 287.453Z" fill="#17BF82"/>
<path fill-rule="evenodd" clip-rule="evenodd" d="M249 142.801C249 188.486 218.01 206 171.794 206C125.577 206 47 178.245 47 132.561C47 86.8757 84.4652 26 130.681 26C176.897 26 249 97.1158 249 142.801Z" fill="#F25CAF"/>
<path fill-rule="evenodd" clip-rule="evenodd" d="M1193.43 171.41C1152.62 221.058 1125.7 320.668 1055.14 271.918C1002.8 235.756 1000.02 133.109 1042.32 72.1202C1084.61 11.1331 1169.21 -25.5882 1229 21.2247C1270.8 50.1073 1231.75 124.821 1193.43 171.41Z" fill="#4E0C6E"/>
<path fill-rule="evenodd" clip-rule="evenodd" d="M547.503 162.89C579.606 118.148 652.435 68.0353 676.477 105.691C726.403 183.886 749.823 81.4409 813.66 85.096C877.496 88.751 838.882 144.41 912.656 164.517C986.429 184.623 970.544 306.587 900.304 283.799C830.064 261.009 838.042 309.166 802.488 321.663C766.936 334.16 766.378 287.308 710.585 302.003C655.719 316.454 577.637 342.996 538.44 310.593C506.557 284.238 513.801 209.862 547.503 162.89Z" fill="#F25CAF"/>
</svg>
