<svg width="198" height="198" viewBox="0 0 198 198" fill="none" xmlns="http://www.w3.org/2000/svg">
<circle cx="99" cy="99" r="99" fill="#FF3F56"/>
<g clip-path="url(#clip0)">
<path fill-rule="evenodd" clip-rule="evenodd" d="M132.941 95.2222H64.7864C62.6963 95.2222 61 96.9147 61 99C61 101.089 62.6963 102.778 64.7864 102.778H132.941C135.031 102.778 136.727 101.089 136.727 99C136.727 96.9147 135.031 95.2222 132.941 95.2222ZM132.941 125.444H64.7864C62.6963 125.444 61 127.137 61 129.222C61 131.311 62.6963 133 64.7864 133H132.941C135.031 133 136.727 131.311 136.727 129.222C136.727 127.137 135.031 125.444 132.941 125.444ZM64.7864 72.5556H132.941C135.031 72.5556 136.727 70.8669 136.727 68.7778C136.727 66.6924 135.031 65 132.941 65H64.7864C62.6963 65 61 66.6924 61 68.7778C61 70.8669 62.6963 72.5556 64.7864 72.5556Z" fill="#F6FDFF"/>
</g>
<defs>
<clipPath id="clip0">
<rect width="75.7273" height="68" fill="white" transform="translate(61 65)"/>
</clipPath>
</defs>
</svg>
