<svg width="1440" height="703" viewBox="0 0 1440 703" fill="none" xmlns="http://www.w3.org/2000/svg">
<path fill-rule="evenodd" clip-rule="evenodd" d="M1383.43 418.614C1301.55 531.743 1205.76 396.097 1128.17 324.009C1050.59 251.921 1012.53 72.2024 1154.9 13.373C1252.76 -27.0671 1305.33 30.4487 1382.91 102.537C1460.51 174.625 1457.37 316.468 1383.43 418.614Z" fill="#F25CAF"/>
<path fill-rule="evenodd" clip-rule="evenodd" d="M993.366 440.885C1003.1 357.475 1055.25 294.397 1124.28 270.234C1167.69 255.039 1307.85 258.147 1374.74 335.651C1468.03 443.776 1378.29 519.1 1280.11 507.013C1144.92 490.37 1263.03 609.403 1176.22 685.489C1107.39 745.8 1124.27 633.579 1041.75 600.871C981.029 576.81 985.796 505.714 993.366 440.885Z" fill="#17BF82"/>
<path fill-rule="evenodd" clip-rule="evenodd" d="M1190.67 24.0411C1251.21 -14.0409 1326.71 19.9982 1364.62 80.816C1402.53 141.635 1464.75 268.401 1339.51 262.822C1241.99 258.479 1040.89 118.269 1190.67 24.0411Z" fill="#9278DA"/>
<path fill-rule="evenodd" clip-rule="evenodd" d="M1034.92 512.403C1051.75 501.95 1072.74 511.294 1083.27 527.989C1093.81 544.684 1111.11 579.482 1076.29 577.951C1049.18 576.759 993.284 538.27 1034.92 512.403Z" fill="#9278DA"/>
<path fill-rule="evenodd" clip-rule="evenodd" d="M854.381 201.626C755.237 251.61 769.461 356.125 684.03 332.051C621.235 314.357 485.575 398.418 441.646 241.383C420.551 165.975 475.185 91.6893 527.116 84.7469C579.048 77.8046 608.705 -23.3298 639.538 4.99117C713.558 72.9996 711.342 14.2501 769.305 46.8189C832.668 82.4248 899.129 179.068 854.381 201.626Z" fill="#17BF82"/>
<path fill-rule="evenodd" clip-rule="evenodd" d="M853.97 518.322C855.675 565.897 785.202 651.12 735.026 652.936C684.839 654.751 642.767 617.657 641.054 570.083C639.34 522.509 678.633 482.471 728.815 480.657C779.005 478.84 852.25 470.749 853.97 518.322Z" fill="#17BF82"/>
<path fill-rule="evenodd" clip-rule="evenodd" d="M344.996 290.453C401.976 364.944 350.731 625.601 217.548 669.807C62.9471 721.116 -9.90689 377.28 1.08051 296.5C12.0665 215.719 33.2126 209.087 121.962 262.408C210.711 315.731 288.016 215.96 344.996 290.453Z" fill="#F25CAF"/>
<path fill-rule="evenodd" clip-rule="evenodd" d="M582.995 175.676C588.943 267.318 674.118 257.636 648.056 309.619C626.576 352.464 482.136 551.521 418.963 464.01C387.244 420.073 410.133 379.865 405.1 325.889C399.163 262.243 314.586 190.175 360.703 145.952C409.164 99.4834 578.645 108.641 582.995 175.676Z" fill="#9278DA"/>
<path fill-rule="evenodd" clip-rule="evenodd" d="M249 145.801C249 191.486 218.01 209 171.794 209C125.577 209 47 181.245 47 135.561C47 89.8757 84.4652 29 130.681 29C176.897 29 249 100.116 249 145.801Z" fill="#17BF82"/>
<path fill-rule="evenodd" clip-rule="evenodd" d="M936.919 625.403C953.748 614.95 974.736 624.294 985.273 640.989C995.811 657.684 1013.11 692.482 978.293 690.951C951.184 689.759 895.284 651.27 936.919 625.403Z" fill="#9278DA"/>
<path fill-rule="evenodd" clip-rule="evenodd" d="M1055.85 552.699C1075.18 552.699 1096.13 523.737 1096.13 511.034C1096.13 498.332 1070.33 498 1051 498C1031.67 498 1016 508.297 1016 521C1016 533.703 1036.52 552.699 1055.85 552.699Z" fill="#9278DA"/>
<path fill-rule="evenodd" clip-rule="evenodd" d="M621.845 448.699C641.175 448.699 662.127 419.737 662.127 407.034C662.127 394.332 636.33 394 617 394C597.67 394 582 404.297 582 417C582 429.703 602.515 448.699 621.845 448.699Z" fill="#F25CAF"/>
</svg>
