<svg width="1406" height="677" viewBox="0 0 1406 677" fill="none" xmlns="http://www.w3.org/2000/svg">
<path fill-rule="evenodd" clip-rule="evenodd" d="M352.996 292.453C409.976 366.944 358.731 627.601 225.548 671.807C70.9471 723.116 -1.90689 379.28 9.08051 298.5C20.0665 217.719 41.2126 211.087 129.962 264.408C218.711 317.731 296.016 217.96 352.996 292.453Z" fill="#1C1C1C"/>
<path fill-rule="evenodd" clip-rule="evenodd" d="M202 144.801C202 190.486 171.01 208 124.794 208C78.5769 208 0 180.245 0 134.561C0 88.8757 37.4652 28 83.681 28C129.897 28 202 99.1158 202 144.801Z" fill="#1C1C1C"/>
<path fill-rule="evenodd" clip-rule="evenodd" d="M611.995 120.676C617.943 212.318 703.118 202.636 677.056 254.619C655.576 297.464 511.136 496.521 447.963 409.01C416.244 365.073 439.133 324.865 434.1 270.889C428.163 207.243 343.586 135.175 389.703 90.9523C438.164 44.4834 607.645 53.6406 611.995 120.676Z" fill="#1C1C1C"/>
<path fill-rule="evenodd" clip-rule="evenodd" d="M650.845 393.699C670.175 393.699 691.127 364.737 691.127 352.034C691.127 339.332 665.33 339 646 339C626.67 339 611 349.297 611 362C611 374.703 631.515 393.699 650.845 393.699Z" fill="#1C1C1C"/>
<path fill-rule="evenodd" clip-rule="evenodd" d="M1179.44 590.156C1125.82 658.278 1067.19 695.338 982.79 629.654C898.393 563.957 907.333 478.709 960.944 410.587C1014.56 342.465 1179.68 375.569 1264.08 441.252C1348.47 506.936 1233.05 522.02 1179.44 590.156Z" fill="#1C1C1C"/>
<path fill-rule="evenodd" clip-rule="evenodd" d="M701.366 177.885C711.1 94.4754 763.253 31.3971 832.284 7.23434C875.687 -7.9607 1015.85 -4.85344 1082.74 72.6505C1176.03 180.776 1086.29 256.1 988.105 244.013C852.918 227.37 971.029 346.403 884.225 422.489C815.393 482.8 832.27 370.579 749.749 337.871C689.029 313.81 693.796 242.714 701.366 177.885Z" fill="#1C1C1C"/>
<path fill-rule="evenodd" clip-rule="evenodd" d="M1182.67 192.041C1243.21 153.959 1318.71 187.998 1356.62 248.816C1394.53 309.635 1456.75 436.401 1331.51 430.822C1233.99 426.479 1032.89 286.269 1182.67 192.041Z" fill="#1C1C1C"/>
<path fill-rule="evenodd" clip-rule="evenodd" d="M695 583.801C695 629.486 664.01 647 617.794 647C571.577 647 493 619.245 493 573.561C493 527.876 530.465 467 576.681 467C622.897 467 695 538.116 695 583.801Z" fill="#1C1C1C"/>
</svg>
