<svg width="1440" height="703" viewBox="0 0 1440 703" fill="none" xmlns="http://www.w3.org/2000/svg">
<path fill-rule="evenodd" clip-rule="evenodd" d="M261.547 245.94C306.445 293.396 289.923 477.7 200.878 518.021C97.5121 564.823 22.0063 331.932 23.7362 275.17C25.465 218.408 39.6313 212.274 104.996 242.751C170.36 273.229 216.65 198.483 261.547 245.94Z" fill="#F25CAF"/>
<path fill-rule="evenodd" clip-rule="evenodd" d="M918.984 19.8689C959.466 47.7816 976.144 186.059 916.895 229.68C848.117 280.314 756.081 120.666 748.472 78.6052C740.862 36.544 750.332 29.8111 803.225 42.0203C856.119 54.2302 878.502 -8.04457 918.984 19.8689Z" fill="#F25CAF"/>
<path fill-rule="evenodd" clip-rule="evenodd" d="M722.12 245.846C736.418 250.812 740.961 267.765 736.114 282.049C731.268 296.332 718.923 323.332 703.094 301.926C690.768 285.257 686.744 233.562 722.12 245.846Z" fill="#9278DA"/>
<path fill-rule="evenodd" clip-rule="evenodd" d="M341.359 692.137C276.843 693.651 223.262 660.708 197.491 610.76C181.286 579.356 168.659 472.355 220.487 413.168C292.793 330.608 359.712 390.841 361.015 466.855C362.808 571.513 440.76 468.9 507.946 526.82C561.205 572.751 473.999 571.91 457.933 638.207C446.118 686.989 391.503 690.965 341.359 692.137Z" fill="#17BF82"/>
<path fill-rule="evenodd" clip-rule="evenodd" d="M215.599 186.115C169.576 209.673 203.893 313.399 134.935 318.146C83.7851 321.667 3.50964 156.134 58.8082 122.605C110.716 91.1318 74.6819 -27.0607 126.464 25.8981C218.329 119.851 282.685 151.776 215.599 186.115Z" fill="#9278DA"/>
<path fill-rule="evenodd" clip-rule="evenodd" d="M753.098 106.058C760.278 100.244 759.422 83.2752 755.634 78.5967C751.845 73.9182 742.164 81.5552 734.984 87.3692C727.805 93.1833 725.056 101.689 728.844 106.368C732.633 111.046 745.919 111.872 753.098 106.058Z" fill="#9278DA"/>
<path fill-rule="evenodd" clip-rule="evenodd" d="M981.398 225.724C986.032 239.182 1011.22 246.826 1020.06 243.781C1028.91 240.736 1022.95 222.696 1018.32 209.238C1013.69 195.78 1002.76 187.338 993.916 190.383C985.072 193.429 976.764 212.266 981.398 225.724Z" fill="#9278DA"/>
<path fill-rule="evenodd" clip-rule="evenodd" d="M86.9576 500.354C124.437 498.964 149.829 534.208 151.127 571.736C152.425 609.264 147.502 683.079 92.059 647.696C48.8857 620.143 -5.77005 503.8 86.9576 500.354Z" fill="#9278DA"/>
<path fill-rule="evenodd" clip-rule="evenodd" d="M1444.35 531.044C1450.76 567.207 1406.07 639.881 1367.93 646.656C1329.78 653.431 1293.66 629.609 1287.24 593.449C1280.83 557.287 1306.55 522.481 1344.69 515.707C1382.84 508.93 1437.92 494.884 1444.35 531.044Z" fill="#9278DA"/>
<path fill-rule="evenodd" clip-rule="evenodd" d="M1277.18 663.08C1265.97 623.349 1226.81 621.125 1241.66 591.653C1252.57 569.99 1231.52 514.513 1291.95 509.621C1320.97 507.272 1344.2 532.482 1343.05 551.928C1341.9 571.374 1376.71 589.373 1364.18 598.617C1334.11 620.808 1355.71 624.167 1339.71 643.012C1322.22 663.612 1282.23 681.012 1277.18 663.08Z" fill="#17BF82"/>
<path fill-rule="evenodd" clip-rule="evenodd" d="M1407.21 484.227C1359.91 528.639 1286.8 511.371 1242.52 463.735C1198.24 416.098 1120.89 313.902 1233.35 297.202C1320.92 284.196 1524.22 374.341 1407.21 484.227Z" fill="#9278DA"/>
<path fill-rule="evenodd" clip-rule="evenodd" d="M1225.08 678.34C1233.95 647.203 1171.79 618.623 1199.07 585.017C1219.3 560.089 1329.38 594.017 1321.12 633.659C1313.37 670.871 1382.88 704.843 1336.52 705.941C1254.26 707.888 1212.16 723.727 1225.08 678.34Z" fill="#9278DA"/>
</svg>
