<svg width="1438" height="703" viewBox="0 0 1438 703" fill="none" xmlns="http://www.w3.org/2000/svg">
<g clip-path="url(#clip0)">
<mask id="mask0" mask-type="alpha" maskUnits="userSpaceOnUse" x="-48" y="-222" width="1600" height="1200">
<rect x="-48" y="-222" width="1600" height="1200" fill="white"/>
</mask>
<g mask="url(#mask0)">
<path fill-rule="evenodd" clip-rule="evenodd" d="M331.503 -176.11C363.606 -220.852 436.435 -270.965 460.477 -233.309C510.403 -155.114 533.823 -257.559 597.66 -253.904C661.496 -250.249 622.882 -194.59 696.656 -174.483C770.429 -154.377 754.544 -32.4127 684.304 -55.201C614.064 -77.9906 622.042 -29.8345 586.488 -17.3366C550.936 -4.84016 550.378 -51.6922 494.585 -36.9968C439.719 -22.5457 361.637 3.99557 322.44 -28.4068C290.557 -54.762 297.801 -129.138 331.503 -176.11Z" fill="#1C1C1C"/>
<path fill-rule="evenodd" clip-rule="evenodd" d="M1414.43 398.614C1332.55 511.743 1236.76 376.097 1159.17 304.009C1081.59 231.921 1043.53 52.2024 1185.9 -6.62699C1283.76 -47.0671 1336.33 10.4487 1413.91 82.5371C1491.51 154.625 1488.37 296.468 1414.43 398.614Z" fill="#F25CAF"/>
<path fill-rule="evenodd" clip-rule="evenodd" d="M1093.38 197.626C994.237 247.61 1008.46 352.125 923.03 328.051C860.235 310.357 724.575 394.418 680.646 237.383C659.551 161.975 714.185 87.6893 766.116 80.7469C818.048 73.8046 847.705 -27.3298 878.538 0.991175C952.558 68.9996 950.342 10.2501 1008.3 42.8189C1071.67 78.4248 1138.13 175.068 1093.38 197.626Z" fill="#17BF82"/>
<path fill-rule="evenodd" clip-rule="evenodd" d="M988.97 397.322C990.675 444.897 920.202 530.12 870.026 531.936C819.839 533.751 777.767 496.657 776.054 449.083C774.34 401.509 813.633 361.471 863.815 359.657C914.005 357.84 987.25 349.749 988.97 397.322Z" fill="#17BF82"/>
<path fill-rule="evenodd" clip-rule="evenodd" d="M-47.1832 91.3802C-37.8606 32.3559 -8.75996 -4.56606 33.7057 -12.7643C76.1699 -20.9626 -106.908 -156.185 -195.371 -70.8829C-234.931 -25.9347 -273.868 61.8702 -191.152 129.694C-137.329 176.998 -55.1541 141.845 -47.1832 91.3802Z" fill="#1C1C1C"/>
<path fill-rule="evenodd" clip-rule="evenodd" d="M285.996 273.453C342.976 347.944 291.731 608.601 158.548 652.807C3.94711 704.116 -68.9069 360.28 -57.9195 279.5C-46.9335 198.719 -25.7874 192.087 62.9619 245.408C151.711 298.731 229.016 198.96 285.996 273.453Z" fill="#F25CAF"/>
<path fill-rule="evenodd" clip-rule="evenodd" d="M523.995 158.676C529.943 250.318 615.118 240.636 589.056 292.619C567.576 335.464 423.136 534.521 359.963 447.01C328.244 403.073 351.133 362.865 346.1 308.889C340.163 245.243 255.586 173.175 301.703 128.952C350.164 82.4834 519.645 91.6406 523.995 158.676Z" fill="#9278DA"/>
<path fill-rule="evenodd" clip-rule="evenodd" d="M69.6562 410.195C24.2124 455.82 104.774 565.494 24.9282 597.662C-34.2981 621.523 -193.078 456.316 -140.486 395.309C-91.1182 338.041 -179.281 211.89 -97.5708 254.697C47.3894 330.642 135.897 343.69 69.6562 410.195Z" fill="#9278DA"/>
<path fill-rule="evenodd" clip-rule="evenodd" d="M190 128.801C190 174.486 159.01 192 112.794 192C66.5769 192 -12 164.245 -12 118.561C-12 72.8757 25.4652 12 71.681 12C117.897 12 190 83.1158 190 128.801Z" fill="#17BF82"/>
<path fill-rule="evenodd" clip-rule="evenodd" d="M1113.21 704.139C1181.65 764.409 1085.67 896 961.502 896C905.428 896 821.696 841.666 831.843 777.97C840.642 722.722 941.446 740.633 972.527 694.091C1072.16 544.921 1071.82 667.681 1113.21 704.139Z" fill="#9278DA"/>
<path fill-rule="evenodd" clip-rule="evenodd" d="M1604.78 -320.382C1727.27 -374.962 1720.1 -242.257 1757.3 -158.094C1854.26 61.2656 1402.68 119.464 1465.18 29.1715C1527.66 -61.1206 1424.24 -100.53 1314.6 -100.53C1128.35 -100.53 1190 -394.899 1376.54 -333.602C1477.02 -300.582 1482.28 -265.802 1604.78 -320.382Z" fill="#1C1C1C"/>
<path fill-rule="evenodd" clip-rule="evenodd" d="M1364.37 488.885C1374.1 405.475 1426.25 342.397 1495.28 318.234C1538.69 303.039 1678.85 306.147 1745.74 383.651C1839.03 491.776 1749.29 567.1 1651.11 555.013C1515.92 538.37 1634.03 657.403 1547.22 733.489C1478.39 793.8 1495.27 681.579 1412.75 648.871C1352.03 624.81 1356.8 553.714 1364.37 488.885Z" fill="#17BF82"/>
<path fill-rule="evenodd" clip-rule="evenodd" d="M1444.67 222.041C1505.21 183.959 1580.71 217.998 1618.62 278.816C1656.53 339.635 1718.75 466.401 1593.51 460.822C1495.99 456.479 1294.89 316.269 1444.67 222.041Z" fill="#9278DA"/>
<path fill-rule="evenodd" clip-rule="evenodd" d="M1405.92 560.403C1422.75 549.95 1443.74 559.294 1454.27 575.989C1464.81 592.684 1482.11 627.482 1447.29 625.951C1420.18 624.759 1364.28 586.27 1405.92 560.403Z" fill="#9278DA"/>
<path fill-rule="evenodd" clip-rule="evenodd" d="M-254.202 1116.43C-347.855 1077.53 -498.921 821.867 -450.747 706.19C-402.573 590.516 -205.158 667.289 -111.506 706.19C-17.8525 745.09 19.0147 870.397 -29.1593 986.061C-77.3332 1101.74 -160.55 1155.33 -254.202 1116.43Z" fill="#1C1C1C"/>
<path fill-rule="evenodd" clip-rule="evenodd" d="M877.919 608.403C894.748 597.95 915.736 607.294 926.273 623.989C936.811 640.684 954.107 675.482 919.293 673.951C892.184 672.759 836.284 634.27 877.919 608.403Z" fill="#9278DA"/>
<path fill-rule="evenodd" clip-rule="evenodd" d="M996.845 535.699C1016.18 535.699 1037.13 506.737 1037.13 494.034C1037.13 481.332 1011.33 481 992 481C972.67 481 957 491.297 957 504C957 516.703 977.515 535.699 996.845 535.699Z" fill="#9278DA"/>
<path fill-rule="evenodd" clip-rule="evenodd" d="M562.845 431.699C582.175 431.699 603.127 402.737 603.127 390.034C603.127 377.332 577.33 377 558 377C538.67 377 523 387.297 523 400C523 412.703 543.515 431.699 562.845 431.699Z" fill="#F25CAF"/>
</g>
</g>
<defs>
<clipPath id="clip0">
<rect width="1438" height="1042" fill="white" transform="translate(0 -169)"/>
</clipPath>
</defs>
</svg>
