<svg width="92" height="78" viewBox="0 0 92 78" fill="none" xmlns="http://www.w3.org/2000/svg">
<rect opacity="0.2" x="34" y="39" width="24" height="38" rx="12" stroke="#1C1C1C" stroke-width="2"/>
<rect opacity="0.2" x="45" y="45" width="2" height="10" rx="1" fill="#1C1C1C"/>
<path opacity="0.3" d="M8.35619 9.768C8.03619 9.40533 7.60952 9.112 7.07619 8.888C6.54285 8.664 5.93485 8.552 5.25219 8.552C4.24952 8.552 3.51885 8.744 3.06019 9.128C2.60152 9.50133 2.37219 10.0133 2.37219 10.664C2.37219 11.0053 2.43085 11.288 2.54819 11.512C2.67619 11.7253 2.86819 11.912 3.12419 12.072C3.38019 12.232 3.70552 12.3707 4.10019 12.488C4.50552 12.6053 4.98019 12.7227 5.52419 12.84C6.13219 12.968 6.67619 13.112 7.15619 13.272C7.64685 13.432 8.06285 13.6347 8.40419 13.88C8.74552 14.1147 9.00685 14.4027 9.18819 14.744C9.36952 15.0853 9.46019 15.512 9.46019 16.024C9.46019 16.5467 9.35885 17 9.15619 17.384C8.95352 17.768 8.67085 18.088 8.30819 18.344C7.94552 18.6 7.51352 18.792 7.01219 18.92C6.51085 19.0373 5.96152 19.096 5.36419 19.096C3.60419 19.096 2.08419 18.5467 0.804187 17.448L1.36419 16.536C1.56685 16.7493 1.80685 16.952 2.08419 17.144C2.37219 17.336 2.68685 17.5067 3.02819 17.656C3.38019 17.7947 3.75352 17.9067 4.14819 17.992C4.54285 18.0667 4.95885 18.104 5.39619 18.104C6.30285 18.104 7.00685 17.944 7.50819 17.624C8.02019 17.2933 8.27619 16.7973 8.27619 16.136C8.27619 15.784 8.20152 15.4907 8.05219 15.256C7.91352 15.0107 7.70019 14.8027 7.41219 14.632C7.12419 14.4507 6.76685 14.296 6.34019 14.168C5.91352 14.04 5.41752 13.912 4.85219 13.784C4.25485 13.6453 3.73219 13.5013 3.28419 13.352C2.83619 13.2027 2.45752 13.016 2.14819 12.792C1.83885 12.568 1.60419 12.3013 1.44419 11.992C1.29485 11.672 1.22019 11.2827 1.22019 10.824C1.22019 10.3013 1.31619 9.83733 1.50819 9.432C1.71085 9.016 1.99352 8.67467 2.35619 8.408C2.71885 8.13067 3.14552 7.92267 3.63619 7.784C4.12685 7.63467 4.67085 7.56 5.26819 7.56C6.02552 7.56 6.69752 7.67733 7.28419 7.912C7.88152 8.136 8.42019 8.456 8.90019 8.872L8.35619 9.768ZM11.0749 14.808C11.0749 14.2213 11.1763 13.6667 11.3789 13.144C11.5816 12.6213 11.8643 12.168 12.2269 11.784C12.6003 11.3893 13.0429 11.08 13.5549 10.856C14.0669 10.632 14.6323 10.52 15.2509 10.52C16.0403 10.52 16.7283 10.7013 17.3149 11.064C17.9016 11.416 18.3443 11.896 18.6429 12.504L17.5869 12.84C17.3523 12.4133 17.0216 12.0827 16.5949 11.848C16.1789 11.6027 15.7149 11.48 15.2029 11.48C14.7763 11.48 14.3763 11.5653 14.0029 11.736C13.6403 11.9067 13.3203 12.1413 13.0429 12.44C12.7763 12.728 12.5629 13.0747 12.4029 13.48C12.2536 13.8853 12.1789 14.328 12.1789 14.808C12.1789 15.2773 12.2589 15.72 12.4189 16.136C12.5789 16.552 12.7976 16.9147 13.0749 17.224C13.3523 17.5227 13.6723 17.7627 14.0349 17.944C14.4083 18.1147 14.8029 18.2 15.2189 18.2C15.4856 18.2 15.7469 18.1627 16.0029 18.088C16.2696 18.0133 16.5149 17.912 16.7389 17.784C16.9629 17.6453 17.1549 17.4907 17.3149 17.32C17.4749 17.1493 17.5869 16.968 17.6509 16.776L18.7229 17.096C18.6056 17.3947 18.4349 17.672 18.2109 17.928C17.9869 18.1733 17.7203 18.392 17.4109 18.584C17.1123 18.7653 16.7763 18.904 16.4029 19C16.0403 19.1067 15.6616 19.16 15.2669 19.16C14.6589 19.16 14.0989 19.048 13.5869 18.824C13.0749 18.5893 12.6323 18.2747 12.2589 17.88C11.8856 17.4747 11.5923 17.0107 11.3789 16.488C11.1763 15.9653 11.0749 15.4053 11.0749 14.808ZM25.0322 11.624C24.2962 11.6453 23.6562 11.848 23.1122 12.232C22.5682 12.616 22.1842 13.144 21.9602 13.816V19H20.8722V10.664H21.8962V12.664C22.2055 12.024 22.6215 11.5227 23.1442 11.16C23.6669 10.7973 24.2269 10.616 24.8242 10.616C24.9095 10.616 24.9789 10.6213 25.0322 10.632V11.624ZM30.0517 19.16C29.4437 19.16 28.889 19.048 28.3877 18.824C27.8864 18.5893 27.449 18.2747 27.0757 17.88C26.713 17.4853 26.4304 17.0267 26.2277 16.504C26.025 15.9813 25.9237 15.432 25.9237 14.856C25.9237 14.2693 26.025 13.7147 26.2277 13.192C26.441 12.6693 26.729 12.2107 27.0917 11.816C27.465 11.4213 27.9024 11.1067 28.4037 10.872C28.905 10.6373 29.4544 10.52 30.0517 10.52C30.649 10.52 31.1984 10.6373 31.6997 10.872C32.2117 11.1067 32.649 11.4213 33.0117 11.816C33.385 12.2107 33.673 12.6693 33.8757 13.192C34.089 13.7147 34.1957 14.2693 34.1957 14.856C34.1957 15.432 34.0944 15.9813 33.8917 16.504C33.689 17.0267 33.401 17.4853 33.0277 17.88C32.665 18.2747 32.2277 18.5893 31.7157 18.824C31.2144 19.048 30.6597 19.16 30.0517 19.16ZM27.0277 14.872C27.0277 15.3413 27.1077 15.7787 27.2677 16.184C27.4277 16.5787 27.641 16.9307 27.9077 17.24C28.185 17.5387 28.505 17.7733 28.8677 17.944C29.241 18.1147 29.6357 18.2 30.0517 18.2C30.4677 18.2 30.857 18.1147 31.2197 17.944C31.593 17.7627 31.9184 17.5227 32.1957 17.224C32.473 16.9147 32.6917 16.5573 32.8517 16.152C33.0117 15.7467 33.0917 15.3093 33.0917 14.84C33.0917 14.3813 33.0117 13.9493 32.8517 13.544C32.6917 13.128 32.473 12.7707 32.1957 12.472C31.9184 12.1627 31.593 11.9227 31.2197 11.752C30.857 11.5707 30.4677 11.48 30.0517 11.48C29.6357 11.48 29.2464 11.5707 28.8837 11.752C28.521 11.9227 28.201 12.1627 27.9237 12.472C27.6464 12.7813 27.4277 13.144 27.2677 13.56C27.1077 13.9653 27.0277 14.4027 27.0277 14.872ZM36.5033 7.32H37.5913V17.112C37.5913 17.4213 37.6766 17.6667 37.8473 17.848C38.018 18.0187 38.258 18.104 38.5673 18.104C38.6846 18.104 38.8233 18.088 38.9833 18.056C39.1433 18.024 39.2926 17.9813 39.4313 17.928L39.6233 18.808C39.4206 18.8933 39.17 18.9627 38.8713 19.016C38.5833 19.0693 38.3326 19.096 38.1193 19.096C37.618 19.096 37.2233 18.9573 36.9353 18.68C36.6473 18.392 36.5033 17.992 36.5033 17.48V7.32ZM41.3027 7.32H42.3907V17.112C42.3907 17.4213 42.476 17.6667 42.6467 17.848C42.8174 18.0187 43.0574 18.104 43.3667 18.104C43.484 18.104 43.6227 18.088 43.7827 18.056C43.9427 18.024 44.092 17.9813 44.2307 17.928L44.4227 18.808C44.22 18.8933 43.9694 18.9627 43.6707 19.016C43.3827 19.0693 43.132 19.096 42.9187 19.096C42.4174 19.096 42.0227 18.9573 41.7347 18.68C41.4467 18.392 41.3027 17.992 41.3027 17.48V7.32ZM53.4962 19.16C52.9202 19.16 52.3869 19.0427 51.8962 18.808C51.4055 18.5627 50.9842 18.2427 50.6322 17.848C50.2802 17.4533 50.0029 17 49.8002 16.488C49.6082 15.9653 49.5122 15.4213 49.5122 14.856C49.5122 14.2693 49.6082 13.7147 49.8002 13.192C49.9922 12.6587 50.2535 12.1947 50.5842 11.8C50.9255 11.4053 51.3255 11.096 51.7842 10.872C52.2535 10.6373 52.7655 10.52 53.3202 10.52C54.0242 10.52 54.6482 10.7067 55.1922 11.08C55.7362 11.4427 56.1629 11.8853 56.4722 12.408V7.32H57.5602V17.592C57.5602 17.8907 57.6882 18.04 57.9442 18.04V19C57.7842 19.032 57.6562 19.048 57.5602 19.048C57.3042 19.048 57.0802 18.968 56.8882 18.808C56.6962 18.6373 56.6002 18.4347 56.6002 18.2V17.384C56.2695 17.928 55.8215 18.36 55.2562 18.68C54.6909 19 54.1042 19.16 53.4962 19.16ZM53.7362 18.2C54.0029 18.2 54.2855 18.1467 54.5842 18.04C54.8935 17.9333 55.1815 17.7893 55.4482 17.608C55.7149 17.416 55.9389 17.1973 56.1202 16.952C56.3122 16.696 56.4295 16.424 56.4722 16.136V13.56C56.3655 13.272 56.2109 13.0053 56.0082 12.76C55.8055 12.504 55.5709 12.28 55.3042 12.088C55.0482 11.896 54.7709 11.7467 54.4722 11.64C54.1735 11.5333 53.8802 11.48 53.5922 11.48C53.1442 11.48 52.7389 11.576 52.3762 11.768C52.0135 11.96 51.6989 12.216 51.4322 12.536C51.1762 12.8453 50.9789 13.2027 50.8402 13.608C50.7015 14.0133 50.6322 14.4293 50.6322 14.856C50.6322 15.304 50.7122 15.7307 50.8722 16.136C51.0322 16.5413 51.2509 16.8987 51.5282 17.208C51.8055 17.5067 52.1309 17.7467 52.5042 17.928C52.8882 18.1093 53.2989 18.2 53.7362 18.2ZM64.0173 19.16C63.4093 19.16 62.8546 19.048 62.3533 18.824C61.852 18.5893 61.4146 18.2747 61.0413 17.88C60.6786 17.4853 60.396 17.0267 60.1933 16.504C59.9906 15.9813 59.8893 15.432 59.8893 14.856C59.8893 14.2693 59.9906 13.7147 60.1933 13.192C60.4066 12.6693 60.6946 12.2107 61.0573 11.816C61.4306 11.4213 61.868 11.1067 62.3693 10.872C62.8706 10.6373 63.42 10.52 64.0173 10.52C64.6146 10.52 65.164 10.6373 65.6653 10.872C66.1773 11.1067 66.6146 11.4213 66.9773 11.816C67.3506 12.2107 67.6386 12.6693 67.8413 13.192C68.0546 13.7147 68.1613 14.2693 68.1613 14.856C68.1613 15.432 68.06 15.9813 67.8573 16.504C67.6546 17.0267 67.3666 17.4853 66.9933 17.88C66.6306 18.2747 66.1933 18.5893 65.6813 18.824C65.18 19.048 64.6253 19.16 64.0173 19.16ZM60.9933 14.872C60.9933 15.3413 61.0733 15.7787 61.2333 16.184C61.3933 16.5787 61.6066 16.9307 61.8733 17.24C62.1506 17.5387 62.4706 17.7733 62.8333 17.944C63.2066 18.1147 63.6013 18.2 64.0173 18.2C64.4333 18.2 64.8226 18.1147 65.1853 17.944C65.5586 17.7627 65.884 17.5227 66.1613 17.224C66.4386 16.9147 66.6573 16.5573 66.8173 16.152C66.9773 15.7467 67.0573 15.3093 67.0573 14.84C67.0573 14.3813 66.9773 13.9493 66.8173 13.544C66.6573 13.128 66.4386 12.7707 66.1613 12.472C65.884 12.1627 65.5586 11.9227 65.1853 11.752C64.8226 11.5707 64.4333 11.48 64.0173 11.48C63.6013 11.48 63.212 11.5707 62.8493 11.752C62.4866 11.9227 62.1666 12.1627 61.8893 12.472C61.612 12.7813 61.3933 13.144 61.2333 13.56C61.0733 13.9653 60.9933 14.4027 60.9933 14.872ZM80.6201 10.664H81.6921L78.1081 19H77.2121L75.4201 14.744L73.6441 19H72.7481L69.1641 10.664H70.2201L73.2601 17.88L74.8441 14.072L73.4201 10.68H74.3321L75.4201 13.4L76.5081 10.68H77.4361L76.0121 14.072L77.5961 17.88L80.6201 10.664ZM90.5877 19H89.4997V14.344C89.4997 13.352 89.3504 12.632 89.0517 12.184C88.7637 11.736 88.3157 11.512 87.7077 11.512C87.3877 11.512 87.0677 11.5707 86.7477 11.688C86.4277 11.8053 86.129 11.9707 85.8517 12.184C85.585 12.3973 85.345 12.6533 85.1317 12.952C84.9184 13.24 84.7637 13.5547 84.6677 13.896V19H83.5797V10.664H84.5717V12.552C84.913 11.944 85.3984 11.4533 86.0277 11.08C86.6677 10.7067 87.361 10.52 88.1077 10.52C88.5664 10.52 88.9557 10.6053 89.2757 10.776C89.5957 10.9467 89.8517 11.1867 90.0437 11.496C90.2357 11.8053 90.3744 12.184 90.4597 12.632C90.545 13.08 90.5877 13.576 90.5877 14.12V19Z" fill="#1C1C1C"/>
</svg>
